<mxfile host="app.diagrams.net" modified="2021-05-25T02:45:33.682Z" agent="5.0 (Macintosh; Intel Mac OS X 10_15_7) AppleWebKit/537.36 (KHTML, like Gecko) Chrome/90.0.4430.212 Safari/537.36" etag="cp6pcoQz2JqEGQ0IoNo4" version="14.7.0" type="github">
  <diagram id="pju4kG_iwYQBXgLFOVJQ" name="Page-1">
    <mxGraphModel dx="1157" dy="608" grid="1" gridSize="10" guides="1" tooltips="1" connect="1" arrows="1" fold="1" page="1" pageScale="1" pageWidth="850" pageHeight="1100" math="0" shadow="0">
      <root>
        <mxCell id="0" />
        <mxCell id="1" parent="0" />
        <mxCell id="KqFy7RfaieVpIJ-n6CBC-1" style="edgeStyle=orthogonalEdgeStyle;rounded=0;orthogonalLoop=1;jettySize=auto;html=1;exitX=0.5;exitY=1;exitDx=0;exitDy=0;entryX=0.5;entryY=0;entryDx=0;entryDy=0;" edge="1" parent="1" source="KqFy7RfaieVpIJ-n6CBC-2" target="KqFy7RfaieVpIJ-n6CBC-3">
          <mxGeometry relative="1" as="geometry" />
        </mxCell>
        <mxCell id="KqFy7RfaieVpIJ-n6CBC-2" value="Addresses" style="rounded=1;whiteSpace=wrap;html=1;fontSize=12;glass=0;strokeWidth=1;shadow=0;" vertex="1" parent="1">
          <mxGeometry x="150" y="210" width="120" height="40" as="geometry" />
        </mxCell>
        <mxCell id="KqFy7RfaieVpIJ-n6CBC-3" value="Map addresses into coordinates" style="rounded=1;whiteSpace=wrap;html=1;fontSize=12;glass=0;strokeWidth=1;shadow=0;" vertex="1" parent="1">
          <mxGeometry x="150" y="310" width="120" height="40" as="geometry" />
        </mxCell>
        <mxCell id="KqFy7RfaieVpIJ-n6CBC-4" style="edgeStyle=orthogonalEdgeStyle;rounded=0;orthogonalLoop=1;jettySize=auto;html=1;entryX=0.5;entryY=0;entryDx=0;entryDy=0;" edge="1" parent="1" source="KqFy7RfaieVpIJ-n6CBC-5" target="KqFy7RfaieVpIJ-n6CBC-2">
          <mxGeometry relative="1" as="geometry" />
        </mxCell>
        <mxCell id="KqFy7RfaieVpIJ-n6CBC-5" value="start" style="strokeWidth=2;html=1;shape=mxgraph.flowchart.start_2;whiteSpace=wrap;" vertex="1" parent="1">
          <mxGeometry x="175" y="50" width="70" height="70" as="geometry" />
        </mxCell>
        <mxCell id="KqFy7RfaieVpIJ-n6CBC-6" style="edgeStyle=orthogonalEdgeStyle;rounded=0;orthogonalLoop=1;jettySize=auto;html=1;entryX=1;entryY=0.5;entryDx=0;entryDy=0;" edge="1" parent="1" source="KqFy7RfaieVpIJ-n6CBC-7" target="KqFy7RfaieVpIJ-n6CBC-3">
          <mxGeometry relative="1" as="geometry" />
        </mxCell>
        <mxCell id="KqFy7RfaieVpIJ-n6CBC-7" value="DistanceMapper" style="shape=parallelogram;html=1;strokeWidth=2;perimeter=parallelogramPerimeter;whiteSpace=wrap;rounded=1;arcSize=12;size=0.23;" vertex="1" parent="1">
          <mxGeometry x="340" y="300" width="140" height="60" as="geometry" />
        </mxCell>
        <mxCell id="KqFy7RfaieVpIJ-n6CBC-8" style="edgeStyle=orthogonalEdgeStyle;rounded=0;orthogonalLoop=1;jettySize=auto;html=1;exitX=0.5;exitY=1;exitDx=0;exitDy=0;entryX=0.5;entryY=0;entryDx=0;entryDy=0;" edge="1" parent="1" source="KqFy7RfaieVpIJ-n6CBC-10" target="KqFy7RfaieVpIJ-n6CBC-13">
          <mxGeometry relative="1" as="geometry" />
        </mxCell>
        <mxCell id="KqFy7RfaieVpIJ-n6CBC-9" style="edgeStyle=orthogonalEdgeStyle;rounded=0;orthogonalLoop=1;jettySize=auto;html=1;entryX=0.25;entryY=1;entryDx=0;entryDy=0;" edge="1" parent="1" source="KqFy7RfaieVpIJ-n6CBC-10" target="KqFy7RfaieVpIJ-n6CBC-7">
          <mxGeometry relative="1" as="geometry" />
        </mxCell>
        <mxCell id="KqFy7RfaieVpIJ-n6CBC-10" value="compute distance matrix" style="rounded=1;whiteSpace=wrap;html=1;fontSize=12;glass=0;strokeWidth=1;shadow=0;" vertex="1" parent="1">
          <mxGeometry x="150" y="390" width="120" height="40" as="geometry" />
        </mxCell>
        <mxCell id="KqFy7RfaieVpIJ-n6CBC-11" style="edgeStyle=orthogonalEdgeStyle;rounded=0;orthogonalLoop=1;jettySize=auto;html=1;exitX=1;exitY=0.5;exitDx=0;exitDy=0;entryX=0;entryY=0.5;entryDx=0;entryDy=0;" edge="1" parent="1" source="KqFy7RfaieVpIJ-n6CBC-13" target="KqFy7RfaieVpIJ-n6CBC-15">
          <mxGeometry relative="1" as="geometry" />
        </mxCell>
        <mxCell id="KqFy7RfaieVpIJ-n6CBC-12" style="edgeStyle=orthogonalEdgeStyle;rounded=0;orthogonalLoop=1;jettySize=auto;html=1;entryX=0.5;entryY=0;entryDx=0;entryDy=0;" edge="1" parent="1" source="KqFy7RfaieVpIJ-n6CBC-13" target="KqFy7RfaieVpIJ-n6CBC-14">
          <mxGeometry relative="1" as="geometry" />
        </mxCell>
        <mxCell id="KqFy7RfaieVpIJ-n6CBC-13" value="use distance matrix to find optimal route" style="rounded=1;whiteSpace=wrap;html=1;fontSize=12;glass=0;strokeWidth=1;shadow=0;" vertex="1" parent="1">
          <mxGeometry x="150" y="490" width="120" height="40" as="geometry" />
        </mxCell>
        <mxCell id="KqFy7RfaieVpIJ-n6CBC-14" value="output optimal route and a google map link" style="rounded=1;whiteSpace=wrap;html=1;fontSize=12;glass=0;strokeWidth=1;shadow=0;" vertex="1" parent="1">
          <mxGeometry x="150" y="585" width="120" height="40" as="geometry" />
        </mxCell>
        <mxCell id="KqFy7RfaieVpIJ-n6CBC-15" value="&lt;span&gt;OneVehicalRouter&lt;/span&gt;" style="shape=parallelogram;html=1;strokeWidth=2;perimeter=parallelogramPerimeter;whiteSpace=wrap;rounded=1;arcSize=12;size=0.23;" vertex="1" parent="1">
          <mxGeometry x="350" y="480" width="140" height="60" as="geometry" />
        </mxCell>
      </root>
    </mxGraphModel>
  </diagram>
</mxfile>
